<svg width="80" height="80" viewBox="0 0 80 80" fill="none" xmlns="http://www.w3.org/2000/svg" class="styles_logo__2aoKT"><path opacity="0.5" d="M80.0007 0.426599V60.9029C80.0007 61.1326 79.8039 61.3295 79.5742 61.3295H51.7477V28.6795C51.7477 28.4498 51.5508 28.2529 51.3211 28.2529H18.671V0.426599C18.671 0.196901 18.8679 0 19.0976 0H79.5742C79.8039 0 80.0007 0.164086 80.0007 0.426599Z" fill="#DB3A2C"></path><path opacity="0.5" d="M51.748 61.3286V79.5732C51.748 79.8029 51.5511 79.9998 51.3214 79.9998H0.426585C0.196885 79.9998 0 79.8029 0 79.5732V28.6785C0 28.4488 0.196885 28.252 0.426585 28.252H18.6713V60.902C18.6713 61.1317 18.8682 61.3286 19.0979 61.3286H51.748Z" fill="#DB3A2C"></path><path d="M51.7477 28.6785V61.3286H19.0976C18.8679 61.3286 18.671 61.1317 18.671 60.902V28.252H51.3211C51.5508 28.252 51.7477 28.4488 51.7477 28.6785Z" fill="#DB3A2C"></path></svg>